# xmcd
#
# Track frame offsets:
#  183
#  11343
#  24110
#  34933
#  47300
#  60918
#  75348
#  87820
#  101585
#  111670
#  124205
#  135980
#  149433
#  162733
#  174425
#  186670
#  199995
#  211623
#  223395
#  236095
#
# Disc length: 3333 seconds
#
# Revision: 3
# Processed by: cddbd v1.5.2PL0 Copyright (c) Steve Scherf et al.
# Submitted via: Collectorz.com Music Collector 6.9
#
DISCID=150d0314
DTITLE=Various Artist - Authentic Sun Blues Rockabilly Rock'n'roll CD 1
DYEAR=1996
DGENRE=Rock and Roll
TTITLE0=Howin' Wolf - Highway Man
TTITLE1=Doctor Ross - Come Back Baby
TTITLE2=Little Junior Parker - Mystery Train
TTITLE3=Jimmy De Berry - Time Has Made a Change
TTITLE4=Johnny London - Drivin' Slow
TTITLE5=Sleepy John Estes - Registration Day Blues
TTITLE6=Ike Turner - How Long Will It Last
TTITLE7=James Cotton - Cotton Crop Blues
TTITLE8=Lost John Hunter - Cool Down Mama
TTITLE9=Joe Hill Louis - Boogie in the Park
TTITLE10=Little Junior Parker - Love My Baby
TTITLE11=Jimmy and Walter - Easy
TTITLE12=Pat Hare - I'm Gonna Murder My Baby
TTITLE13=Sammy Lewis - I Feel So Worried
TTITLE14=Willie Nix - Seems Like a Million Years
TTITLE15=Little Junior Parker - Feelin' Good
TTITLE16=Little Milton - If You Love Me
TTITLE17=Jeb Stuart - I Bet You're Gonna Like It
TTITLE18=Rufus Thomas - Tiger Man
TTITLE19=Billy Emerson - When It Rains It Pours
EXTD=
EXTT0=
EXTT1=
EXTT2=
EXTT3=
EXTT4=
EXTT5=
EXTT6=
EXTT7=
EXTT8=
EXTT9=
EXTT10=
EXTT11=
EXTT12=
EXTT13=
EXTT14=
EXTT15=
EXTT16=
EXTT17=
EXTT18=
EXTT19=
PLAYORDER=
